<svg xmlns="http://www.w3.org/2000/svg" width="1200" height="800" viewBox="0 0 1200 800" fill="none"><rect width="1200" height="800" fill="#FCE7DD"/><g opacity=".14" stroke="#2C9A95" stroke-width="3" fill="none"><path d="M-40 80c120-90 220 90 340 0s220 90 340 0 220 90 340 0 220 90 340 0"/><path d="M-40 200c120-90 220 90 340 0s220 90 340 0 220 90 340 0 220 90 340 0"/><path d="M-40 320c120-90 220 90 340 0s220 90 340 0 220 90 340 0 220 90 340 0"/><path d="M-40 440c120-90 220 90 340 0s220 90 340 0 220 90 340 0 220 90 340 0"/><path d="M-40 560c120-90 220 90 340 0s220 90 340 0 220 90 340 0 220 90 340 0"/><path d="M-40 680c120-90 220 90 340 0s220 90 340 0 220 90 340 0 220 90 340 0"/></g></svg>